<?xml version="1.0" encoding="UTF-8" standalone="no"?>
<!DOCTYPE svg PUBLIC "-//W3C//DTD SVG 1.1//EN" "http://www.w3.org/Graphics/SVG/1.1/DTD/svg11.dtd">
<svg width="100%" height="100%" viewBox="0 0 300 300" version="1.1" xmlns="http://www.w3.org/2000/svg" xmlns:xlink="http://www.w3.org/1999/xlink" xml:space="preserve" xmlns:serif="http://www.serif.com/" style="fill-rule:evenodd;clip-rule:evenodd;stroke-linecap:round;stroke-linejoin:round;">
    <g id="Layer-3" serif:id="Layer 3" transform="matrix(1,0,0,1,-100,-100)">
        <g transform="matrix(1,0,0,1,9,13)">
            <path d="M166.066,359.31C129.399,333.481 105.445,290.823 105.445,242.574C105.445,207.727 117.939,175.797 138.694,151.017" style="fill:none;stroke:white;stroke-width:6.32px;"/>
        </g>
        <g transform="matrix(1,0,0,1,9,13)">
            <path d="M321.437,122.831C355.11,148.937 376.784,189.772 376.784,235.669C376.784,265.91 367.374,293.954 351.322,317.035" style="fill:none;stroke:white;stroke-width:6.32px;"/>
        </g>
    </g>
    <g id="Layer-1" serif:id="Layer 1" transform="matrix(1,0,0,1,-100,-100)">
        <g transform="matrix(1,0,0,1,9,13)">
            <path d="M322.591,123.013L246.575,94.5C240.958,92.393 234.745,92.568 229.3,94.996L156.71,127.378C148.696,130.953 145.188,140.306 148.874,148.269C150.718,152.251 154.005,155.134 157.842,156.573C161.679,158.012 166.051,158.002 170.058,156.215L236.664,126.529L279.032,142.42C281.957,143.517 283.474,146.771 282.393,149.655C281.311,152.54 278.039,153.963 275.114,152.866L253.93,144.92C242.218,140.527 229.231,146.346 224.899,157.895L220.981,168.34L288.19,193.55C299.435,197.768 311.886,197.406 322.779,192.539" style="fill:none;stroke:white;stroke-width:6.32px;"/>
        </g>
        <g transform="matrix(1,0,0,1,9,13)">
            <path d="M240.058,187.587C235.041,187.532 229.963,189.667 226.907,193.816L213.313,213.32L221.44,217.792L235.033,198.421C237.634,195.03 242.503,195.001 244.992,198.531L259.622,219.939L252.446,223.578L274.324,234.841L274.572,212.269L267.695,215.779L253.068,194.104C250.104,189.889 245.075,187.642 240.058,187.587ZM213.07,221.816L191.545,232.601L197.455,235.853L185.069,253.644L184.922,253.51C184.865,253.592 184.975,253.693 184.919,253.775C177.81,263.175 185.748,276.36 198.642,276.502L224.803,276.79L224.897,268.292L198.736,268.004C192.716,267.938 189.542,262.591 192.746,258.509L192.896,258.378L192.897,258.246L205.582,240.325L212.822,244.389L213.07,221.816ZM282.617,237.722L274.392,242.146L286.096,259.273C289.092,263.937 285.58,268.961 280.043,268.9L253.436,268.607L253.53,260.109L230.053,272.599L253.249,285.603L253.343,277.105L279.949,277.398C292.491,277.536 300.677,264.878 294.319,254.981L294.321,254.848L282.617,237.722Z" style="fill:none;stroke:white;stroke-width:2.16px;"/>
        </g>
        <g transform="matrix(1,0,0,1,9,13)">
            <path d="M165.202,358.825L243.159,381.499C248.92,383.175 255.102,382.53 260.347,379.696L330.276,341.91C337.997,337.739 340.787,328.147 336.508,320.486C334.368,316.655 330.872,314.03 326.937,312.885C323.002,311.741 318.643,312.081 314.783,314.167L250.616,348.812L207.167,336.175C204.167,335.302 202.407,332.173 203.268,329.215C204.128,326.257 207.283,324.59 210.283,325.462L232.007,331.781C244.018,335.275 256.528,328.488 259.972,316.645L263.088,305.933L194.163,285.886C182.631,282.531 170.243,283.835 159.749,289.513" style="fill:none;stroke:white;stroke-width:6.32px;"/>
        </g>
    </g>
</svg>
